# xmcd
#
# Track frame offsets:
#	150
#	17596
#	35775
#	50644
#	64755
#	77483
#	90395
#	106721
#	125724
#	142169
#	159284
#	176100
#	203577
#	225627
#	246990
#	261016
#	285405
#	302328
#
# Disc length: 4524 seconds
#
# Revision: 0
# Processed by: cddbd v1.5.2PL0 Copyright (c) Steve Scherf et al.
# Submitted via: EZCDAudioConverter 2.1.7.1
#
DISCID=ed11aa12
DTITLE=V/A - Wake Up You! V1
DYEAR=1900
DGENRE=
TTITLE0=Formulars Dance Band - Never Never Let Me Down
TTITLE1=The Hygrades - Keep On Moving
TTITLE2=Ify Jerry Krusade - Everybody Likes Something Good
TTITLE3=The Hygrades - In The Jungle [Instrumental]
TTITLE4=The Strangers - Onye Ije
TTITLE5=The Hykkers - Stone The Flower
TTITLE6=The Funkees - Baby I Need You
TTITLE7=Waves - Mother
TTITLE8=Ofo The Black Company - Beautiful Daddy
TTITLE9=War-Head Constriction - Graceful Bird
TTITLE10=Magnificent Zenians - Ije Udo
TTITLE11=The Apostles - Never Too Late
TTITLE12=Aktion - Groove The Funk
TTITLE13=Wrinkar Experience - Ballad Of A Sad Young Woman
TTITLE14=The Founders 15 - I Can't Be Satisfied
TTITLE15=Tirogo - Float
TTITLE16=Question Mark - Scram Out
TTITLE17=P.R.O. - Tell Me
EXTD=
EXTT0=
EXTT1=
EXTT2=
EXTT3=
EXTT4=
EXTT5=
EXTT6=
EXTT7=
EXTT8=
EXTT9=
EXTT10=
EXTT11=
EXTT12=
EXTT13=
EXTT14=
EXTT15=
EXTT16=
EXTT17=
PLAYORDER=
